<svg width="2125" height="556" viewBox="0 0 2125 556" fill="none" xmlns="http://www.w3.org/2000/svg">
    <path d="M259.642 39.3114C285.503 16.1987 319.397 3.34383 353.667 0.13282C362.926 -0.0288075 372.186 -0.0287825 381.445 0.057419C391.06 0.639279 400.48 2.85896 409.955 4.52912L409.998 5.62818C411.409 5.5743 412.819 5.52044 414.24 5.47734L414.37 6.64105C415.748 6.33934 416.943 6.59794 417.987 7.40608C420.819 8.6991 424.189 8.68834 426.697 10.6925C430.412 11.5222 434.212 12.8368 437.313 15.078C440.533 15.6922 443.246 17.621 446.002 19.2804C449.996 20.7027 453.14 23.7089 456.941 25.5515C461.269 28.7194 466.093 31.3163 469.829 35.2384C473.565 37.0487 475.836 40.6691 479.099 43.0935C483.427 45.9166 485.731 50.7439 489.725 53.9549C496.681 62.101 503.248 70.6673 508.739 79.8908C514.187 90.4613 519.56 101.247 522.37 112.863C526.451 126.935 528.604 141.665 528.55 156.308C548.458 154.757 567.052 163.625 583.805 173.355C597.188 182.191 608.826 193.515 618.785 206.047C631.878 223.47 641.04 244.029 644.324 265.634C647.156 285.643 645.896 306.235 640.351 325.684C629.186 362.869 598.802 393.815 561.614 405.097C550.665 408.222 539.295 410.151 527.893 410.043C500.987 410.172 474.092 410.043 447.186 409.892C443.859 409.87 440.5 410.14 437.195 409.569C443.633 403.556 449.964 397.436 456.359 391.402C461.818 386.262 468.429 381.413 476.235 381.338C489.155 381.047 502.075 381.165 514.995 380.831C528.13 380.314 541.492 379.333 553.949 374.808C562.702 371.629 571.283 367.61 578.55 361.705C590.426 352.202 600.697 340.316 606.813 326.266C613.111 313.185 615.017 298.509 615.308 284.135C615.512 248.964 595.239 214.678 564.737 197.405C552.398 190.423 538.821 185.035 524.588 184.001C515.705 183.128 506.726 183.484 497.822 183.839C499.254 166.868 500.395 149.639 497.241 132.786C496.67 128.843 495.184 125.114 494.71 121.16C492.126 111.947 488.444 103.047 483.61 94.7821C477.462 82.5631 468.644 71.734 458.061 63.0815C444.968 51.2719 429.346 42.5224 413.013 36.0466C400.071 31.6287 386.602 28.6763 372.918 28.2884C352.235 28.1699 331.219 31.6072 312.301 40.2381C294.526 48.5996 278.936 61.1851 266.112 76.001C250.759 93.349 239.616 114.759 235.977 137.764C225.307 137.851 214.626 138.217 203.967 137.807C206.584 123.229 210.05 108.682 216.532 95.2886C226.771 73.8675 241.748 54.8493 259.642 39.3114Z"
          fill="url(#paint0_linear_19_84)"/>
    <path d="M390.586 65.8508C392.685 63.6742 394.58 61.1204 397.434 59.9028C396.712 69.1049 393.741 77.9513 392.115 87.0132C388.368 103.823 385.041 120.718 381.37 137.549C378.441 151.848 375.986 166.232 372.638 180.434C372.078 185.423 371.583 190.487 370.398 195.347C368.988 208.073 366.539 217.501 364.956 230.226C362.975 230.226 361.274 230.275 358.496 230.226C347.32 230.032 336.182 230.291 325.017 230.873C328.807 218.492 332.037 205.928 336.225 193.655C338.023 187.794 340.327 182.083 341.738 176.113C339.326 177.827 337.98 180.51 336.117 182.729C329.625 190.649 323.768 199.064 317.437 207.114C304.711 223.125 292.695 239.698 279.819 255.602C276.61 259.503 273.832 263.737 270.624 267.638C279.216 267.045 287.883 267.692 296.442 266.571C312.614 266.442 328.828 266.754 344.957 265.461C385.838 264.459 426.74 263.78 467.643 263.554C479.206 263.058 491.922 268.489 496.81 279.555C501.73 290.169 497.876 302.808 490.318 311.126C480.768 321.266 471.024 331.233 461.334 341.243C454.615 348.904 447.369 356.07 440.188 363.311C430.132 373.698 420.41 384.409 410.407 394.85C395.14 411.541 378.947 427.348 363.519 443.888C329.259 479.295 294.913 514.616 261.332 550.681C259.394 552.685 257.467 554.991 254.614 555.626C254.926 551.327 256.659 547.34 257.973 543.289C265.93 521.049 274.177 498.917 282.22 476.698C289.315 455.482 297.519 434.675 305.249 413.685C312.915 392.296 321.227 371.144 328.742 349.702C331.326 342.138 334.341 334.724 337.42 327.343C338.809 323.927 342.847 322.936 346.098 322.257C352.235 327.192 359.707 330.015 366.156 334.476C362.097 351.943 354.582 368.354 349.403 385.486C343.449 401.239 338.454 417.37 331.962 432.918C334.761 428.565 338.777 425.247 341.91 421.163C348.176 413.825 355.777 407.715 361.731 400.108C367.459 393.977 373.704 388.298 379.044 381.801C385.396 374.883 392.309 368.494 398.564 361.468C406.575 352.611 415.328 344.465 423.241 335.511C430.315 327.893 437.798 320.652 444.882 313.023C450.459 307.204 455.832 301.159 461.732 295.653C393.698 296.02 325.706 299.004 257.682 300.136C250.146 300.157 242.221 297.658 237.312 291.656C231.799 285.32 231.358 276.075 233.457 268.284C236.461 259.072 243.083 251.744 248.864 244.18C260.589 229.612 271.722 214.581 283.425 200.002C296.108 184.583 307.704 168.323 320.484 152.979C343.665 123.789 366.307 94.1356 390.586 65.8508Z"
          fill="url(#paint1_linear_19_84)"/>
    <path d="M105.37 155.906H257.37V185.906H105.37V155.906Z" fill="url(#paint2_linear_19_84)"/>
    <path d="M72.3696 155.906H257.37V185.906H72.3696V155.906Z" fill="url(#paint3_linear_19_84)"/>
    <path d="M24.3696 155.906H54.3696V185.906H24.3696V155.906Z" fill="url(#paint4_linear_19_84)"/>
    <path d="M141.37 210.906H239.37V240.906H141.37V210.906Z" fill="url(#paint5_linear_19_84)"/>
    <path d="M71.3696 210.906H101.37V240.906H71.3696V210.906Z" fill="url(#paint6_linear_19_84)"/>
    <path d="M0.369629 266.906H30.3696V296.906H0.369629V266.906Z" fill="url(#paint7_linear_19_84)"/>
    <path d="M57.3696 265.906H209.37V295.906H57.3696V265.906Z" fill="url(#paint8_linear_19_84)"/>
    <path d="M104.37 322.906H314.37V352.906H104.37V322.906Z" fill="url(#paint9_linear_19_84)"/>
    <path d="M35.3696 324.906H65.3696V354.906H35.3696V324.906Z" fill="url(#paint10_linear_19_84)"/>
    <path d="M64.3696 381.906H94.3696V411.906H64.3696V381.906Z" fill="url(#paint11_linear_19_84)"/>
    <path d="M134.37 380.906H280.37V410.906H134.37V380.906Z" fill="url(#paint12_linear_19_84)"/>
    <path fill-rule="evenodd" clip-rule="evenodd"
          d="M869.16 17.0996C899.06 17.0996 914.92 37.3796 904.26 62.3396L887.62 101.86C880.34 119.02 862.4 133.84 842.38 141.38C840.82 141.9 839.78 143.2 840.3 144.24L857.98 182.98C860.06 187.66 854.86 193.38 848.36 193.38H788.56L770.62 148.92C769.84 147.88 768.8 147.1 767.24 147.1H720.18C718.88 147.1 717.58 147.88 717.06 148.92L703.54 180.9C701.2 186.36 694.18 190.52 687.94 190.52H637.76L657.074 145H703V142H658.347L667.257 121H723V118H668.53L675.743 101H735V98H677.016L679.986 91H741.861L736.56 103.68H814.56C820.02 103.68 826.26 99.7796 828.34 95.0996L830.103 91H835V86H832.253L839.52 69.0996C841.34 64.4196 838.48 60.5196 832.76 60.5196H727.46L749.82 71.9596L743.951 86H682.108L684.653 80H720V77H685.926L696.78 51.4196L697.04 17.0996H869.16ZM1064.96 57L1066.02 63H1014V66H1066.54L1074.49 111H1024V119H1075.9L1088.52 190.52L1034.96 190.26C1030.54 190.26 1027.16 187.66 1026.64 183.5L1025.34 175.18H928.099L943.179 182.46C939.019 186.62 935.119 190.26 928.879 190.26L905.999 190.52H867.519L883.899 174.4L991.539 65.9796V44.6596H1062.78L1064.07 52H1030V57H1064.96ZM988.159 134.88H1023.26L1019.62 97.9596L988.159 134.88ZM1322.28 85.4796C1331.9 62.8596 1317.08 44.3996 1290.82 44.3996H1149.38V74.5596L1148.34 77H1262V82H1146.22L1134.33 110H1188V122H1129.23L1126.26 129H1213V133H1124.56L1100.24 190.26H1145.74C1152.24 190.26 1159.26 185.84 1161.6 180.38L1172.26 155.42H1246.62C1272.1 155.42 1299.92 138.26 1309.02 116.94L1322.28 85.4796ZM1263.84 87.5385C1263.81 87.7112 1263.78 87.8954 1263.78 88.0796L1254.94 108.88C1253.9 111.22 1250.26 113.56 1247.14 113.56H1190.2L1198.26 94.0596L1181.88 86.2596H1261.7C1262.74 86.2596 1263.52 86.5196 1263.78 86.7796C1263.95 86.9475 1263.9 87.2238 1263.84 87.5385ZM1379.37 91.1996L1395.75 98.9996L1361.17 180.12C1358.83 185.84 1351.81 190 1345.31 190H1299.81L1348.69 74.5596L1348.95 44.1396H1418.89L1399.13 91.1996H1379.37ZM1601.67 85.4796C1602.85 82.6013 1603.65 79.7648 1604.08 77H1562V74H1604.41C1604.76 68.1563 1603.39 62.6966 1600.37 57.9196C1594.65 49.3396 1583.47 44.3996 1569.95 44.3996H1435.79L1435.53 74.5596L1386.39 190.78H1510.93C1531.92 190.78 1554.51 178.949 1566.9 163H1465V155H1572.05C1572.51 154.107 1572.93 153.207 1573.33 152.3L1579.39 138H1542V135H1580.66L1584.9 125H1527.3L1518.99 144.76C1518.47 145.8 1516.39 147.1 1514.57 147.1H1462.31L1484.41 95.0996L1468.55 87.2996H1543.17L1529.4 120H1587.02L1596.78 97H1541V94H1598.05L1601.67 85.4796ZM904.26 227.84L889.7 262.42C887.36 267.62 880.34 272.04 873.84 272.04H719.66L737.6 281.66L734.74 288.68C733.18 291.8 735.26 294.4 739.16 294.4H831.72C860.4 294.4 875.914 312.738 868.425 336H802.424C802.396 336 802.368 336 802.34 336H709.78C699.969 336 691.669 333.816 685.322 330H849.483V327H681.122C671.369 318.745 668.352 305.577 674.68 290.76L682.22 273.08C692.62 248.12 725.64 227.84 755.8 227.84H904.26ZM984.864 341H939.078L913.537 401H959.297C965.797 401 972.817 396.84 975.157 391.12L1011.56 305.84L994.917 297.78H1059.66C1066.16 297.78 1072.92 293.36 1075.52 287.9L1089.3 255.4H907.037C907.037 255.738 907.012 257.492 906.977 260.045L906.976 260.101L906.976 260.111V260.112V260.114C906.847 269.375 906.574 288.964 906.777 289.98C908.077 296.22 913.537 297.26 917.697 297.52C919.517 297.78 955.397 297.78 957.477 297.78L941.207 336H984.864V341ZM807.25 341H866.488L863.439 348H804.184L807.02 341.72C807.114 341.474 807.191 341.234 807.25 341ZM802.711 351H862.133L860.06 355.76C858.249 360 855.8 364.106 852.834 368H679.962V371H850.412C843.205 379.439 833.577 386.723 822.878 392H656.418V395H816.137C806.553 398.816 796.377 401 786.48 401H634.64L649.72 365.12C652.06 359.92 659.08 355.5 665.32 355.5H794.02C797.398 355.5 800.971 353.549 802.711 351ZM1237.24 255.92C1263.5 255.92 1278.32 274.64 1268.7 297L1266.61 302H1214.42V307H1264.52L1262.01 313H1204.5L1210.2 299.6C1210.2 299.401 1210.24 299.24 1210.27 299.103C1210.32 298.881 1210.36 298.72 1210.2 298.56C1209.94 298.3 1209.16 297.78 1208.12 297.78H1128.82L1144.68 305.58L1136.62 325.08H1193.56C1196.68 325.08 1200.32 323 1201.36 320.4L1203.23 316H1260.76L1255.44 328.72C1249.67 341.761 1236.4 354.077 1220.07 361H1207.36V369H1221.59L1231.52 390.6C1234.38 396.84 1228.4 404.12 1220.6 404.12H1171.46H1170.94H1170.42L1155.34 366.94H1118.68L1108.02 391.9C1105.68 397.62 1098.66 401.78 1092.16 401.78H1046.66L1095.8 286.08V255.92H1237.24ZM1268.09 369L1251.81 385.4L1235.43 401.52H1273.91L1296.79 401.26C1303.03 401.26 1306.93 397.62 1311.09 393.46L1296.01 386.18H1393.25L1394.55 394.5C1395.07 398.66 1398.45 401.26 1402.87 401.26L1456.43 401.52L1444.16 332H1389.8L1391.17 345.88H1356.07L1367.9 332H1314.49V327H1372.16L1387.53 308.96L1389.31 327H1443.28L1430.69 255.66H1359.45V276.98L1276.03 361H1312.13V369H1268.09ZM1694.61 255.14H1745.31L1692.76 379H1638.41L1652.49 345.88L1608.55 395.54C1605.43 398.92 1600.49 401 1595.81 401H1566.69C1561.23 401 1557.33 397.88 1556.55 393.46L1546.41 349.26L1545.89 345.88C1540.55 358.327 1539.61 360.555 1537.19 366.283C1535.36 370.605 1532.69 376.919 1526.65 391.12C1524.31 396.58 1517.29 401 1510.79 401H1468.15L1503.72 317H1570.13V305H1508.8L1517.03 285.56L1517.29 255.14H1586.45L1587.49 262.94L1596.07 335.22L1589.83 352.64L1603.87 338.6L1644.6 298H1683V294H1648.62L1657.65 285H1696V277H1665.67L1681.87 260.86C1685.25 257.48 1690.19 255.14 1694.61 255.14ZM1637 382.312L1634.03 389.3C1631.43 395.28 1635.33 401 1642.35 401H1683.43L1691.07 383H1637V382.312ZM1936.5 255.14H1762.3L1762.04 286.86L1713.68 401.26H1866.56C1870.98 401.26 1875.66 398.14 1877.48 394.24L1880.14 388H1817.16V385H1881.41L1885.66 375H1777.14V370H1887.79L1891.52 361.22H1788.04L1795.06 344.58H1815.98V344H1875.32C1878.64 342.923 1881.52 340.456 1882.68 337.56L1887.19 327H1840.71V324H1888.48L1894.12 310.78H1809.36L1813 302.2L1796.88 294.4H1911.8C1916.48 294.4 1921.16 291.54 1922.72 287.64L1936.5 255.14ZM1905.64 388L1899.78 401.78H1945.28C1951.78 401.78 1958.8 397.62 1961.14 391.9L1962.81 388H1905.64ZM1964.09 385H1906.91L1911.16 375H1968.36L1964.09 385ZM1913.28 370L1923.05 347H1989.04V344H1924.32L1931.54 327H2013.76V325.08H2046.68C2049.8 325.08 2053.44 323 2054.48 320.4L2063.32 299.6C2063.32 299.401 2063.36 299.24 2063.39 299.103C2063.45 298.881 2063.48 298.72 2063.32 298.56C2063.06 298.3 2062.28 297.78 2061.24 297.78H1981.94L1997.8 305.58L1990.19 324H1932.82L1948.92 286.08V255.92H2090.36C2116.62 255.92 2131.44 274.64 2121.82 297L2108.56 328.72C2102.58 342.24 2088.54 354.98 2071.38 361.74L2075.18 370H2009.71L2008.46 366.94H1971.8L1970.5 370H1913.28ZM2023.54 404.12L2011.73 375H2077.48L2084.64 390.6C2087.5 396.84 2081.52 404.12 2073.72 404.12H2024.58H2024.06H2023.54Z"
          fill="black"/>
    <defs>
        <linearGradient id="paint0_linear_19_84" x1="689.326" y1="261.825" x2="-0.344347" y2="261.825"
                        gradientUnits="userSpaceOnUse">
            <stop stop-color="#0968E5"/>
            <stop offset="1" stop-color="#091970"/>
        </linearGradient>
        <linearGradient id="paint1_linear_19_84" x1="689.326" y1="261.825" x2="-0.344347" y2="261.825"
                        gradientUnits="userSpaceOnUse">
            <stop stop-color="#0968E5"/>
            <stop offset="1" stop-color="#091970"/>
        </linearGradient>
        <linearGradient id="paint2_linear_19_84" x1="689.326" y1="261.825" x2="-0.344347" y2="261.825"
                        gradientUnits="userSpaceOnUse">
            <stop stop-color="#0968E5"/>
            <stop offset="1" stop-color="#091970"/>
        </linearGradient>
        <linearGradient id="paint3_linear_19_84" x1="689.326" y1="261.825" x2="-0.344347" y2="261.825"
                        gradientUnits="userSpaceOnUse">
            <stop stop-color="#0968E5"/>
            <stop offset="1" stop-color="#091970"/>
        </linearGradient>
        <linearGradient id="paint4_linear_19_84" x1="689.326" y1="261.825" x2="-0.344347" y2="261.825"
                        gradientUnits="userSpaceOnUse">
            <stop stop-color="#0968E5"/>
            <stop offset="1" stop-color="#091970"/>
        </linearGradient>
        <linearGradient id="paint5_linear_19_84" x1="689.326" y1="261.825" x2="-0.344347" y2="261.825"
                        gradientUnits="userSpaceOnUse">
            <stop stop-color="#0968E5"/>
            <stop offset="1" stop-color="#091970"/>
        </linearGradient>
        <linearGradient id="paint6_linear_19_84" x1="689.326" y1="261.825" x2="-0.344347" y2="261.825"
                        gradientUnits="userSpaceOnUse">
            <stop stop-color="#0968E5"/>
            <stop offset="1" stop-color="#091970"/>
        </linearGradient>
        <linearGradient id="paint7_linear_19_84" x1="689.326" y1="261.825" x2="-0.344347" y2="261.825"
                        gradientUnits="userSpaceOnUse">
            <stop stop-color="#0968E5"/>
            <stop offset="1" stop-color="#091970"/>
        </linearGradient>
        <linearGradient id="paint8_linear_19_84" x1="689.326" y1="261.825" x2="-0.344347" y2="261.825"
                        gradientUnits="userSpaceOnUse">
            <stop stop-color="#0968E5"/>
            <stop offset="1" stop-color="#091970"/>
        </linearGradient>
        <linearGradient id="paint9_linear_19_84" x1="689.326" y1="261.825" x2="-0.344347" y2="261.825"
                        gradientUnits="userSpaceOnUse">
            <stop stop-color="#0968E5"/>
            <stop offset="1" stop-color="#091970"/>
        </linearGradient>
        <linearGradient id="paint10_linear_19_84" x1="689.326" y1="261.825" x2="-0.344347" y2="261.825"
                        gradientUnits="userSpaceOnUse">
            <stop stop-color="#0968E5"/>
            <stop offset="1" stop-color="#091970"/>
        </linearGradient>
        <linearGradient id="paint11_linear_19_84" x1="689.326" y1="261.825" x2="-0.344347" y2="261.825"
                        gradientUnits="userSpaceOnUse">
            <stop stop-color="#0968E5"/>
            <stop offset="1" stop-color="#091970"/>
        </linearGradient>
        <linearGradient id="paint12_linear_19_84" x1="689.326" y1="261.825" x2="-0.344347" y2="261.825"
                        gradientUnits="userSpaceOnUse">
            <stop stop-color="#0968E5"/>
            <stop offset="1" stop-color="#091970"/>
        </linearGradient>
    </defs>
</svg>
